# xmcd
#
# Track frame offsets: 
#        150
#        19507
#        35997
#        62028
#        82138
#        95205
#        111504
#        129844
#        139656
#        160544
#
# Disc length: 2443 seconds
#
# Revision: 0
# Processed by: cddbd v1.5.2PL0 Copyright (c) Steve Scherf et al.
# Submitted via: ExactAudioCopyFreeDBPlugin 1.0
#
DISCID=8709890a
DTITLE=Andre Pelser - Blues Album
DYEAR=2011
DGENRE=
TTITLE0=Preacherman Blues
TTITLE1=Draw Nigh to Me
TTITLE2=If I Go Away Today
TTITLE3=He Was a Man of Sorrows
TTITLE4=Brighter Than the Morning Star
TTITLE5=Man Alone
TTITLE6=Grateful Blues
TTITLE7=Turn These Stones Into Bread
TTITLE8=Wartime Movie
TTITLE9=Home Again
EXTD=
EXTT0=
EXTT1=
EXTT2=
EXTT3=
EXTT4=
EXTT5=
EXTT6=
EXTT7=
EXTT8=
EXTT9=
PLAYORDER=
